<?xml version="1.0" standalone="no"?>
<!DOCTYPE svg PUBLIC "-//W3C//DTD SVG 20010904//EN"
 "http://www.w3.org/TR/2001/REC-SVG-20010904/DTD/svg10.dtd">
<svg version="1.0" xmlns="http://www.w3.org/2000/svg"
 width="256.000000pt" height="256.000000pt" viewBox="0 0 256.000000 256.000000"
 preserveAspectRatio="xMidYMid meet">
<metadata>
Created by potrace 1.11, written by Peter Selinger 2001-2013
</metadata>
<g transform="translate(0.000000,256.000000) scale(0.100000,-0.100000)"
fill="#000000" stroke="none">
<path d="M1981 2460 c-17 -17 -31 -38 -31 -46 0 -28 -37 -14 -61 24 -20 30
-31 38 -61 40 -38 3 -52 -6 -100 -66 -24 -29 -44 -28 -52 3 -21 82 -120 87
-162 9 -19 -35 -64 -49 -64 -20 0 23 -42 66 -69 71 -33 6 -78 -20 -96 -55 -9
-17 -19 -30 -23 -31 -4 0 -15 -2 -25 -4 -9 -2 -15 1 -12 6 3 5 1 17 -4 28 -33
61 -91 69 -140 19 -17 -17 -31 -38 -31 -46 0 -9 -10 -12 -32 -10 -25 2 -34 8
-36 25 -4 30 -48 63 -81 63 -27 0 -68 -35 -89 -75 -6 -11 -27 -27 -49 -34 -51
-18 -106 -59 -131 -96 -11 -16 -58 -104 -105 -195 -46 -91 -124 -241 -172
-335 -316 -611 -319 -618 -319 -701 0 -68 33 -113 111 -150 58 -27 58 -27 290
-28 226 -1 233 -2 234 -21 0 -11 0 -117 -1 -235 -1 -194 1 -221 20 -279 42
-125 109 -193 229 -233 65 -21 79 -22 641 -22 521 -1 581 1 643 17 152 39 201
89 229 228 19 92 19 1835 1 1895 -35 114 -151 191 -291 194 -13 0 -21 4 -18 9
3 5 -5 24 -17 42 -33 49 -82 52 -126 9z m93 -32 c15 -24 5 -30 -45 -26 l-44 3
23 23 c26 26 49 26 66 0z m-667 -25 c5 -13 -76 -22 -84 -9 -3 5 5 17 18 27 20
15 27 16 43 5 11 -7 21 -17 23 -23z m223 18 c15 -30 14 -31 -42 -31 l-51 0 23
25 c28 30 55 32 70 6z m218 7 c23 -23 12 -34 -33 -34 -50 0 -56 7 -23 30 27
19 40 20 56 4z m-910 -25 c14 -23 14 -23 -38 -23 -49 0 -51 1 -39 18 31 39 53
40 77 5z m236 11 c10 -27 7 -29 -40 -31 -42 -2 -45 -1 -32 15 28 36 61 43 72
16z"/>
</g>
</svg>
